<?xml version="1.0" standalone="no"?>
<!DOCTYPE svg PUBLIC "-//W3C//DTD SVG 20010904//EN"
 "http://www.w3.org/TR/2001/REC-SVG-20010904/DTD/svg10.dtd">
<svg version="1.0" xmlns="http://www.w3.org/2000/svg"
 width="1024.000000pt" height="1024.000000pt" viewBox="0 0 1024.000000 1024.000000"
 preserveAspectRatio="xMidYMid meet">

<g transform="translate(0.000000,1024.000000) scale(0.100000,-0.100000)"
fill="#000000" stroke="none">
<path d="M2033 8823 c15 -2 37 -2 50 0 12 2 0 4 -28 4 -27 0 -38 -2 -22 -4z"/>
<path d="M2178 8823 c23 -2 61 -2 85 0 23 2 4 4 -43 4 -47 0 -66 -2 -42 -4z"/>
<path d="M2348 8823 c6 -2 18 -2 25 0 6 3 1 5 -13 5 -14 0 -19 -2 -12 -5z"/>
<path d="M2433 8823 c26 -2 68 -2 95 0 26 2 4 3 -48 3 -52 0 -74 -1 -47 -3z"/>
<path d="M2918 8755 c-9 -118 -6 -3591 3 -3730 10 -151 28 -242 70 -351 28
-74 39 -95 84 -170 12 -19 1 -12 -30 21 -38 41 -44 44 -32 20 8 -16 29 -47 46
-69 17 -21 31 -42 31 -46 0 -10 159 -169 180 -180 9 -5 -18 25 -58 67 -41 41
-72 77 -69 79 2 3 18 -8 33 -23 177 -171 375 -257 629 -273 61 -4 90 -8 65 -9
-60 -2 -91 -21 -35 -21 141 1 359 64 429 125 35 31 28 32 -26 4 -23 -12 -51
-22 -62 -24 -12 -2 -52 -11 -91 -21 -101 -26 -356 -26 -440 0 -100 30 -246
113 -334 187 -181 155 -267 312 -308 568 -16 98 -18 250 -18 1946 l0 1840 -31
65 -31 65 -5 -70z"/>
<path d="M1990 8759 c0 -5 5 -7 10 -4 6 3 10 8 10 11 0 2 -4 4 -10 4 -5 0 -10
-5 -10 -11z"/>
<path d="M1990 8708 c0 -37 7 -34 14 5 2 15 0 27 -5 27 -5 0 -9 -14 -9 -32z"/>
<path d="M1989 8413 c0 -142 -3 -267 -5 -278 -5 -24 7 -467 13 -462 8 8 9 997
1 997 -4 0 -8 -116 -9 -257z"/>
<path d="M6792 8309 c-12 -11 -26 -18 -30 -15 -14 9 -115 -101 -107 -115 5 -7
4 -10 -2 -6 -6 4 -69 -52 -140 -125 -70 -72 -186 -191 -258 -264 -71 -72 -227
-232 -345 -355 -118 -123 -276 -286 -350 -362 -74 -76 -139 -146 -144 -155 -5
-9 -5 -14 -1 -10 5 4 14 3 21 -3 11 -9 53 28 191 168 98 99 223 227 278 284
55 58 197 205 315 325 292 299 564 586 585 618 22 34 15 42 -13 15z"/>
<path d="M5480 8250 c-19 -20 -107 -113 -195 -206 -215 -226 -286 -307 -139
-158 65 66 148 152 184 190 36 38 96 102 134 142 38 39 65 72 60 71 -5 -1 -25
-18 -44 -39z"/>
<path d="M4863 7603 c-187 -186 -624 -635 -620 -639 5 -5 509 501 603 606 27
30 58 62 69 72 11 9 17 17 13 18 -3 0 -33 -26 -65 -57z"/>
<path d="M1985 7588 c-4 -35 -2 -85 3 -113 9 -45 10 -39 11 63 0 61 -1 112 -3
112 -3 0 -7 -28 -11 -62z"/>
<path d="M1992 7230 c0 -19 2 -27 5 -17 2 9 2 25 0 35 -3 9 -5 1 -5 -18z"/>
<path d="M1987 7183 c-9 -15 -6 -118 3 -133 7 -10 10 10 10 63 0 73 -3 87 -13
70z"/>
<path d="M4230 6936 c0 -2 7 -9 15 -16 9 -7 15 -8 15 -2 0 5 -7 12 -15 16 -8
3 -15 4 -15 2z"/>
<path d="M4310 6853 c0 -6 24 -38 53 -70 29 -32 66 -74 81 -93 31 -38 161
-181 272 -300 38 -41 93 -100 120 -130 179 -198 288 -309 297 -303 6 3 7 1 3
-6 -9 -13 13 -42 97 -131 185 -196 339 -362 461 -498 76 -84 146 -157 157
-162 14 -8 30 -3 71 23 110 70 227 119 313 131 102 15 264 18 316 6 41 -10 49
-15 34 -20 -15 -5 -11 -8 20 -14 93 -18 235 -93 330 -174 84 -73 183 -199 224
-287 96 -201 102 -256 101 -900 0 -546 -3 -642 -25 -766 -21 -116 -75 -241
-156 -360 -104 -154 -307 -298 -479 -340 -315 -78 -599 -29 -832 143 -110 82
-222 211 -274 318 -36 71 -28 29 9 -52 43 -94 99 -180 155 -240 44 -47 48 -64
8 -31 -12 10 3 -8 32 -38 29 -30 49 -59 45 -64 -5 -4 -3 -5 4 -2 6 4 35 -9 65
-29 55 -38 155 -88 198 -99 14 -3 -11 13 -55 37 -156 84 -185 116 -39 44 144
-72 245 -98 404 -103 113 -4 155 -1 245 17 117 23 214 57 280 98 117 73 258
199 322 287 13 17 23 25 23 20 0 -6 -31 -48 -69 -95 -60 -74 -92 -104 -206
-195 -15 -12 -11 -12 14 2 83 45 300 284 268 296 -9 3 -9 9 0 23 45 68 84 178
112 312 19 93 21 135 22 723 1 658 -1 696 -46 837 -27 84 -27 102 0 47 25 -54
30 -35 5 22 -141 316 -322 481 -635 578 -71 22 -115 29 -213 33 -230 8 -416
-44 -537 -150 l-35 -30 -27 34 c-15 18 -62 69 -103 114 -41 44 -156 170 -255
279 -99 110 -210 231 -246 270 -36 38 -160 171 -275 295 -322 346 -582 624
-597 636 -8 7 -23 25 -35 40 -12 16 -22 24 -22 17z m2435 -1585 c82 -29 192
-96 255 -156 25 -23 12 -17 -41 21 -90 64 -229 133 -299 150 -28 6 -50 15 -50
20 0 10 34 1 135 -35z m321 -215 c-7 -7 -26 7 -26 19 0 6 6 6 15 -2 9 -7 13
-15 11 -17z m190 -290 c-4 -4 -36 73 -35 85 0 4 9 -13 20 -37 11 -24 18 -46
15 -48z"/>
<path d="M3950 6675 c24 -25 46 -45 48 -45 2 0 -13 20 -34 45 -20 25 -41 45
-47 45 -6 0 9 -20 33 -45z"/>
<path d="M5830 6435 c19 -22 39 -44 44 -50 5 -5 4 -1 -2 10 -6 11 -25 33 -44
50 l-33 30 35 -40z"/>
<path d="M6010 6226 c0 -2 8 -10 18 -17 15 -13 16 -12 3 4 -13 16 -21 21 -21
13z"/>
<path d="M6408 6193 c6 -2 18 -2 25 0 6 3 1 5 -13 5 -14 0 -19 -2 -12 -5z"/>
<path d="M6055 6180 c3 -5 14 -10 23 -10 15 0 15 2 2 10 -20 13 -33 13 -25 0z"/>
<path d="M6788 6153 c6 -2 18 -2 25 0 6 3 1 5 -13 5 -14 0 -19 -2 -12 -5z"/>
<path d="M6888 6133 c7 -3 16 -2 19 1 4 3 -2 6 -13 5 -11 0 -14 -3 -6 -6z"/>
<path d="M3230 6121 c0 -7 31 -45 68 -85 37 -39 101 -109 142 -156 219 -249
820 -884 820 -865 0 4 -27 35 -59 69 -32 33 -155 167 -272 296 -118 129 -218
240 -224 246 -5 6 -77 85 -160 175 -221 240 -314 336 -315 320z"/>
<path d="M4470 6075 c19 -19 36 -35 39 -35 3 0 -10 16 -29 35 -19 19 -36 35
-39 35 -3 0 10 -16 29 -35z"/>
<path d="M4515 6060 c10 -11 20 -20 23 -20 3 0 -3 9 -13 20 -10 11 -20 20 -23
20 -3 0 3 -9 13 -20z"/>
<path d="M7058 6073 c7 -3 16 -2 19 1 4 3 -2 6 -13 5 -11 0 -14 -3 -6 -6z"/>
<path d="M7140 6040 c0 -5 5 -10 11 -10 5 0 7 5 4 10 -3 6 -8 10 -11 10 -2 0
-4 -4 -4 -10z"/>
<path d="M4540 5996 c0 -2 8 -10 18 -17 15 -13 16 -12 3 4 -13 16 -21 21 -21
13z"/>
<path d="M1985 5575 c0 -225 1 -319 2 -208 2 111 2 295 0 410 -1 114 -2 24 -2
-202z"/>
<path d="M7410 5896 c0 -2 8 -10 18 -17 15 -13 16 -12 3 4 -13 16 -21 21 -21
13z"/>
<path d="M7450 5865 c0 -2 10 -10 23 -16 20 -11 21 -11 8 4 -13 16 -31 23 -31
12z"/>
<path d="M7520 5817 c14 -14 28 -24 31 -23 3 0 17 -12 32 -29 23 -27 25 -27
20 -8 -3 13 -9 20 -14 17 -5 -3 -9 1 -9 8 0 7 -19 23 -43 36 l-42 23 25 -24z"/>
<path d="M2810 5776 c0 -2 7 -7 16 -10 8 -3 12 -2 9 4 -6 10 -25 14 -25 6z"/>
<path d="M2850 5771 c0 -6 4 -13 10 -16 6 -3 7 1 4 9 -7 18 -14 21 -14 7z"/>
<path d="M6294 5773 c10 -10 66 -11 72 -1 3 4 -14 8 -37 8 -23 0 -39 -3 -35
-7z"/>
<path d="M7660 5697 c24 -26 46 -47 48 -47 10 0 -7 20 -48 55 l-45 39 45 -47z"/>
<path d="M2817 5703 c6 -16 8 -16 23 1 9 12 8 15 -8 13 -12 0 -18 -6 -15 -14z"/>
<path d="M2855 5580 c-3 -5 -1 -10 4 -10 6 0 11 5 11 10 0 6 -2 10 -4 10 -3 0
-8 -4 -11 -10z"/>
<path d="M5065 5430 c10 -11 20 -20 23 -20 3 0 -3 9 -13 20 -10 11 -20 20 -23
20 -3 0 3 -9 13 -20z"/>
<path d="M6538 5303 c7 -3 16 -2 19 1 4 3 -2 6 -13 5 -11 0 -14 -3 -6 -6z"/>
<path d="M2020 5176 c0 -2 7 -7 16 -10 8 -3 12 -2 9 4 -6 10 -25 14 -25 6z"/>
<path d="M2050 5140 c0 -5 5 -10 11 -10 5 0 7 5 4 10 -3 6 -8 10 -11 10 -2 0
-4 -4 -4 -10z"/>
<path d="M2093 5133 c9 -2 23 -2 30 0 6 3 -1 5 -18 5 -16 0 -22 -2 -12 -5z"/>
<path d="M4290 4977 c0 -2 15 -16 33 -33 l32 -29 -29 33 c-28 30 -36 37 -36
29z"/>
<path d="M4380 4885 c13 -14 26 -25 28 -25 3 0 -5 11 -18 25 -13 14 -26 25
-28 25 -3 0 5 -11 18 -25z"/>
<path d="M2005 4865 c3 -22 5 -52 5 -67 0 -16 4 -28 8 -28 5 0 5 26 0 58 -10
66 -21 96 -13 37z"/>
<path d="M2020 4720 c0 -5 5 -10 11 -10 5 0 7 5 4 10 -3 6 -8 10 -11 10 -2 0
-4 -4 -4 -10z"/>
<path d="M2030 4688 c0 -14 27 -115 59 -218 27 -90 64 -184 73 -188 5 -2 6 -7
3 -12 -3 -5 2 -16 11 -24 8 -9 13 -16 10 -16 -6 0 48 -105 97 -187 17 -29 35
-53 39 -53 4 0 8 -6 8 -12 0 -7 11 -26 25 -42 39 -45 30 -25 -27 61 -54 81
-125 212 -147 273 -53 140 -83 230 -87 260 -2 19 -9 37 -15 41 -7 4 -8 12 -5
18 4 6 2 11 -3 11 -6 0 -10 3 -9 8 2 10 -22 92 -27 92 -3 0 -5 -6 -5 -12z"/>
<path d="M6011 4415 c45 -51 161 -175 383 -410 21 -22 34 -32 29 -22 -8 16
-200 219 -393 417 -52 53 -57 57 -19 15z"/>
<path d="M4826 4388 c3 -10 10 -18 15 -18 5 0 9 -6 9 -12 0 -7 33 -47 73 -90
39 -42 104 -111 144 -155 141 -153 213 -227 213 -218 0 8 -81 102 -181 210
-30 33 -93 101 -139 150 -128 139 -142 152 -134 133z"/>
<path d="M4436 4372 c-2 -4 22 -37 54 -72 46 -52 56 -68 46 -79 -8 -12 -8 -13
2 -7 15 9 55 -22 46 -36 -3 -4 0 -7 8 -6 7 2 13 -5 13 -14 0 -9 4 -20 9 -25 5
-4 6 -3 2 5 -17 28 8 8 72 -60 158 -170 212 -228 286 -310 44 -49 83 -88 88
-88 22 0 3 43 -39 91 -263 297 -555 609 -569 609 -7 0 -15 -4 -18 -8z"/>
<path d="M4340 4265 c-7 -8 -9 -15 -6 -15 4 0 14 7 22 15 9 8 11 15 6 15 -5 0
-15 -7 -22 -15z"/>
<path d="M8231 4114 c0 -11 3 -14 6 -6 3 7 2 16 -1 19 -3 4 -6 -2 -5 -13z"/>
<path d="M5290 3886 c0 -13 45 -64 340 -385 184 -201 223 -242 243 -252 28
-15 20 3 -21 46 -21 22 -145 155 -276 295 -303 324 -286 306 -286 296z"/>
<path d="M2411 3864 c0 -11 3 -14 6 -6 3 7 2 16 -1 19 -3 4 -6 -2 -5 -13z"/>
<path d="M8200 3860 c0 -5 5 -10 11 -10 5 0 7 5 4 10 -3 6 -8 10 -11 10 -2 0
-4 -4 -4 -10z"/>
<path d="M8187 3819 c7 -7 15 -10 18 -7 3 3 -2 9 -12 12 -14 6 -15 5 -6 -5z"/>
<path d="M8191 3781 c-10 -18 -6 -31 10 -31 3 0 9 11 11 25 6 29 -7 33 -21 6z"/>
<path d="M8161 3734 c-12 -9 -19 -19 -16 -24 3 -4 -1 -11 -7 -13 -10 -4 -10
-6 0 -6 8 -1 25 -10 39 -20 22 -18 22 -20 4 -18 -11 0 -18 4 -15 8 6 10 -33
22 -46 14 -5 -3 -10 -11 -10 -16 0 -6 5 -7 11 -3 10 6 -18 -44 -31 -56 -13
-11 -4 -34 15 -40 20 -5 20 -6 3 -22 -10 -10 -20 -13 -23 -8 -4 6 -1 10 5 10
6 0 8 5 5 10 -3 6 -11 10 -16 10 -6 0 -8 -4 -4 -9 3 -5 -2 -16 -10 -25 -13
-13 -12 -14 12 -12 16 2 36 0 45 -5 19 -10 61 17 52 33 -3 4 2 5 12 1 15 -5
15 -7 0 -15 -9 -5 -13 -14 -10 -20 4 -6 3 -9 -2 -5 -14 8 -47 -20 -38 -34 4
-8 3 -10 -4 -5 -7 4 -12 2 -12 -3 0 -6 5 -11 12 -11 6 0 8 -3 5 -6 -4 -4 -14
-1 -22 6 -13 11 -13 15 -3 21 21 13 -6 33 -36 25 -29 -7 -34 -21 -12 -29 11
-4 13 -1 9 11 -5 13 -3 15 7 5 16 -15 5 -47 -12 -37 -7 5 -21 9 -30 9 -14 1
-15 -1 -6 -13 8 -9 14 -10 16 -3 2 6 9 8 15 4 11 -7 19 -9 67 -16 11 -2 23 -7
27 -12 5 -4 2 -5 -4 -1 -7 4 -13 2 -13 -4 0 -8 -6 -8 -21 0 -47 26 -93 17
-117 -20 -9 -14 -8 -21 3 -30 11 -9 15 -9 15 -1 0 6 -5 11 -12 11 -6 0 -4 8 7
20 11 12 28 18 46 17 31 -2 37 -18 14 -37 -15 -13 -39 -5 -30 11 4 5 1 9 -4 9
-6 0 -11 -4 -11 -8 0 -12 48 -52 63 -52 8 0 7 4 -3 10 -8 5 -10 10 -4 10 6 0
14 -3 18 -7 12 -12 56 -14 56 -3 0 6 7 4 16 -4 8 -9 19 -16 24 -16 9 0 17 224
12 347 -3 78 -14 92 -51 67z m20 -37 c-10 -9 -11 -8 -5 6 3 10 9 15 12 12 3
-3 0 -11 -7 -18z m-48 -106 c3 -13 0 -18 -7 -15 -7 3 -13 11 -13 19 0 22 14
18 20 -4z m61 3 c3 -8 2 -12 -4 -9 -6 3 -10 10 -10 16 0 14 7 11 14 -7z m-39
-54 c3 -5 1 -10 -4 -10 -6 0 -11 5 -11 10 0 6 2 10 4 10 3 0 8 -4 11 -10z m10
-90 c3 -5 1 -10 -4 -10 -6 0 -11 5 -11 10 0 6 2 10 4 10 3 0 8 -4 11 -10z m25
-30 c0 -5 -2 -10 -4 -10 -3 0 -8 5 -11 10 -3 6 -1 10 4 10 6 0 11 -4 11 -10z
m-61 -54 c-3 -3 -11 5 -18 17 -13 21 -12 21 5 5 10 -10 16 -20 13 -22z"/>
<path d="M3740 3640 c0 -5 23 -10 50 -10 28 0 50 5 50 10 0 6 -22 10 -50 10
-27 0 -50 -4 -50 -10z"/>
<path d="M5005 3624 c-16 -14 -61 -50 -99 -80 -38 -29 -65 -54 -62 -54 17 0
95 53 146 99 56 50 69 79 15 35z"/>
<path d="M7373 3455 c0 -33 2 -45 4 -27 2 18 2 45 0 60 -2 15 -4 0 -4 -33z"/>
<path d="M4765 3455 l-30 -25 45 22 c56 27 58 28 34 28 -10 0 -32 -11 -49 -25z"/>
<path d="M2937 3429 c7 -7 15 -10 18 -7 3 3 -2 9 -12 12 -14 6 -15 5 -6 -5z"/>
<path d="M5060 3339 c-102 -50 -249 -122 -328 -160 -141 -68 -192 -104 -192
-133 0 -11 13 -8 58 15 58 29 88 37 77 19 -7 -12 14 -3 160 68 257 125 336
166 347 180 9 10 -2 7 -31 -7 -23 -12 -45 -20 -48 -18 -2 3 32 23 76 45 75 38
80 39 95 23 19 -21 21 -33 4 -29 -16 3 -78 -22 -78 -32 0 -4 10 -6 23 -4 68 9
110 12 101 6 -14 -11 -13 -42 1 -42 7 0 15 -5 17 -11 4 -13 68 -24 68 -11 0
29 -132 182 -157 182 -5 0 -91 -41 -193 -91z m30 -44 c0 -2 -10 -10 -22 -16
-21 -11 -22 -11 -9 4 13 16 31 23 31 12z m-114 -60 c-11 -8 -25 -15 -30 -15
-6 1 0 7 14 15 32 19 40 18 16 0z m-56 -29 c0 -2 -7 -7 -16 -10 -8 -3 -12 -2
-9 4 6 10 25 14 25 6z m-40 -20 c0 -2 -7 -7 -16 -10 -8 -3 -12 -2 -9 4 6 10
25 14 25 6z m-153 -77 c-22 -11 -41 -18 -44 -15 -3 3 10 12 28 20 50 21 60 18
16 -5z"/>
<path d="M2989 3400 c13 -11 35 -23 50 -27 14 -3 29 -10 32 -15 10 -16 260
-96 364 -117 297 -60 628 -49 915 29 78 21 92 26 150 54 43 20 29 18 -133 -28
-190 -53 -320 -69 -542 -70 -203 0 -299 12 -495 61 -87 22 -262 85 -345 125
-16 7 -15 5 4 -12z"/>
<path d="M4625 3380 c-3 -6 1 -7 9 -4 18 7 21 14 7 14 -6 0 -13 -4 -16 -10z"/>
<path d="M7958 3302 c-10 -2 -18 -7 -18 -10 0 -11 263 -7 267 4 3 10 -208 15
-249 6z"/>
<path d="M5994 3248 c-3 -4 99 -8 227 -8 128 0 229 3 226 7 -10 9 -447 11
-453 1z"/>
<path d="M7963 3253 c21 -6 23 -23 1 -23 -8 0 -12 -4 -9 -10 3 -5 0 -10 -7
-10 -9 -1 -9 -4 3 -13 29 -22 17 -97 -16 -97 -5 0 -3 5 5 10 12 8 13 11 1 19
-9 6 -10 11 -2 15 30 19 0 63 -34 50 -23 -9 -18 -26 5 -19 26 8 26 -11 1 -25
-14 -7 -21 -6 -24 3 -2 7 -9 2 -16 -12 -11 -19 -11 -22 1 -16 7 3 5 0 -6 -9
-14 -12 -17 -23 -13 -51 4 -23 2 -33 -4 -29 -6 3 -5 -3 3 -15 16 -27 28 -27
21 -1 -7 28 23 37 47 15 14 -13 17 -22 10 -35 -6 -12 -5 -17 6 -17 7 0 14 7
14 15 0 26 13 4 16 -25 1 -16 0 -22 -3 -15 -2 6 -14 12 -25 12 -19 0 -19 -2 6
-25 16 -14 25 -32 22 -40 -2 -7 0 -16 7 -19 7 -2 -3 -5 -20 -5 -18 -1 -33 -4
-33 -8 0 -5 20 -8 44 -7 40 1 44 -1 36 -17 -7 -12 -6 -19 3 -22 9 -3 9 -7 -1
-19 -10 -13 -9 -16 7 -21 11 -3 22 0 25 7 3 7 5 7 5 -2 1 -7 -9 -17 -21 -21
-20 -8 -21 -10 -6 -16 9 -4 22 -4 27 0 7 4 8 0 5 -10 -4 -9 -13 -14 -20 -11
-8 3 -11 0 -7 -9 3 -8 9 -12 14 -9 5 3 19 -2 31 -11 l23 -16 -25 3 c-18 2 -25
-2 -28 -17 -2 -15 -1 -16 6 -7 7 11 11 8 16 -10 5 -19 8 -21 17 -8 9 13 10 12
5 -3 -3 -10 -6 -21 -6 -23 0 -2 -12 3 -27 13 -16 9 -25 13 -21 8 4 -4 3 -14
-3 -22 -9 -9 -8 -13 0 -13 6 0 11 5 11 10 0 6 4 10 10 10 5 0 7 -7 3 -16 -5
-13 -3 -14 13 -6 24 13 54 49 54 65 1 14 29 66 30 54 0 -4 -16 -49 -35 -99
-38 -97 -42 -129 -7 -50 48 108 75 190 93 284 11 55 22 104 24 109 3 4 1 10
-4 13 -5 4 -12 -13 -16 -36 -12 -74 -37 -168 -45 -168 -4 0 -2 17 5 38 20 57
44 216 51 335 l7 107 -134 -1 c-74 -1 -126 -3 -116 -6z m62 -73 c-3 -5 -14
-10 -23 -9 -14 0 -13 2 3 9 27 11 27 11 20 0z m-21 -46 c3 -8 2 -12 -4 -9 -6
3 -10 10 -10 16 0 14 7 11 14 -7z m-99 -14 c3 -5 1 -10 -4 -10 -6 0 -11 5 -11
10 0 6 2 10 4 10 3 0 8 -4 11 -10z m-20 -50 c3 -5 1 -10 -4 -10 -6 0 -11 5
-11 10 0 6 2 10 4 10 3 0 8 -4 11 -10z m65 -11 c0 -8 4 -8 14 0 8 7 17 8 20 3
3 -6 -4 -12 -15 -15 -13 -4 -18 -10 -13 -18 4 -8 3 -10 -5 -5 -6 4 -9 12 -6
17 4 5 1 9 -4 9 -6 0 -11 5 -11 10 0 6 5 10 10 10 6 0 10 -5 10 -11z m74 -150
c-6 -11 -24 -2 -24 11 0 5 7 7 15 4 8 -4 12 -10 9 -15z m117 -162 c-10 -9 -11
-8 -5 6 3 10 9 15 12 12 3 -3 0 -11 -7 -18z"/>
<path d="M5958 3243 c7 -3 16 -2 19 1 4 3 -2 6 -13 5 -11 0 -14 -3 -6 -6z"/>
<path d="M4950 3180 c-9 -6 -10 -10 -3 -10 6 0 15 5 18 10 8 12 4 12 -15 0z"/>
<path d="M4903 3155 c-3 -9 -3 -18 -1 -21 3 -3 8 4 11 16 6 23 -1 27 -10 5z"/>
<path d="M4990 3144 c0 -7 6 -16 13 -20 6 -4 9 -4 5 1 -4 4 -3 13 2 20 7 8 5
12 -5 12 -8 0 -15 -6 -15 -13z"/>
<path d="M5380 3148 c0 -9 5 -20 10 -23 13 -8 13 5 0 25 -8 13 -10 13 -10 -2z"/>
<path d="M4865 3142 c-10 -7 -20 -42 -12 -42 3 0 12 11 21 25 16 24 12 32 -9
17z"/>
<path d="M8222 3130 c0 -14 2 -19 5 -12 2 6 2 18 0 25 -3 6 -5 1 -5 -13z"/>
<path d="M5042 3125 c-18 -8 -31 -19 -28 -24 4 -5 0 -11 -6 -14 -10 -3 -10
-10 1 -31 11 -19 17 -23 23 -14 4 7 8 11 9 8 6 -34 8 -43 13 -48 18 -17 30 68
15 99 -5 9 -3 21 3 27 15 15 11 15 -30 -3z m19 -35 c5 0 9 -5 9 -11 0 -5 -5
-7 -12 -3 -8 5 -9 2 -5 -10 6 -14 3 -16 -16 -10 -29 9 -34 14 -21 22 6 4 14
16 19 27 7 18 9 18 12 3 3 -10 9 -18 14 -18z"/>
<path d="M4788 3108 c-28 -16 -39 -30 -43 -52 -8 -50 -1 -266 8 -266 5 0 6 12
3 26 -5 19 -3 24 5 18 9 -5 11 2 6 27 -3 19 -3 28 0 21 2 -6 9 -10 14 -7 5 4
6 -2 2 -11 -5 -13 -3 -15 8 -9 8 5 7 1 -3 -12 -19 -21 -24 -53 -8 -53 12 0 8
-43 -5 -52 -6 -5 -5 -12 3 -20 6 -6 12 -15 12 -19 0 -13 -29 -18 -36 -7 -4 7
-3 8 4 4 7 -4 12 -2 12 3 0 6 -7 11 -15 11 -18 0 -20 -42 -4 -72 6 -12 7 -18
1 -14 -6 4 -10 -24 -10 -74 0 -78 0 -80 24 -80 14 0 24 -6 24 -14 0 -20 -17
-29 -23 -14 -3 8 -6 6 -6 -4 -1 -10 6 -18 14 -18 8 0 15 -5 15 -11 0 -5 -4 -8
-9 -5 -5 4 -7 -3 -4 -14 3 -11 10 -17 16 -13 5 3 7 1 4 -5 -9 -14 3 -43 14
-36 5 3 6 -1 3 -9 -3 -8 -1 -18 5 -21 6 -4 9 38 8 121 -1 102 -4 131 -17 141
-13 11 -13 12 0 10 10 -2 16 7 18 26 2 17 0 26 -7 22 -5 -4 -13 -1 -17 5 -4 8
-3 9 4 5 7 -4 12 -3 12 3 0 5 3 17 7 27 5 14 3 16 -12 11 -15 -6 -16 -5 -5 8
10 12 14 72 16 230 1 118 1 215 0 215 0 0 -18 -10 -38 -22z m-1 -70 c-3 -8 -6
-5 -6 6 -1 11 2 17 5 13 3 -3 4 -12 1 -19z m3 -52 c0 -2 -8 -10 -17 -17 -16
-13 -17 -12 -4 4 13 16 21 21 21 13z m23 -11 c4 -8 3 -16 -1 -19 -4 -3 -9 4
-9 15 -2 23 3 25 10 4z m-26 -45 c-1 -9 4 -14 13 -12 8 2 12 0 8 -4 -5 -4 -20
-8 -35 -10 -16 -1 -22 0 -15 3 6 2 12 11 12 18 0 7 -6 15 -12 18 -7 3 -3 4 9
4 15 -1 22 -7 20 -17z m0 -285 c0 -22 -14 -18 -20 4 -3 13 0 18 7 15 7 -3 13
-11 13 -19z m3 -97 c0 -10 -4 -18 -10 -18 -5 0 -10 -5 -10 -11 0 -6 7 -9 15
-5 13 5 14 2 5 -15 -6 -11 -17 -18 -23 -16 -13 5 -14 21 -1 51 5 14 4 17 -4
12 -7 -4 -10 -2 -6 7 7 20 34 17 34 -5z"/>
<path d="M4956 3114 c-4 -9 -4 -19 -1 -22 2 -3 7 3 11 12 4 9 4 19 1 22 -2 3
-7 -3 -11 -12z"/>
<path d="M4890 3094 c0 -8 -4 -12 -10 -9 -5 3 -10 1 -10 -4 0 -6 9 -11 20 -11
13 0 20 7 20 20 0 11 -4 20 -10 20 -5 0 -10 -7 -10 -16z"/>
<path d="M4920 3068 c-11 -10 -17 -24 -14 -32 3 -8 1 -17 -5 -21 -7 -4 -8 0
-4 11 4 12 3 15 -5 10 -7 -4 -10 -2 -7 6 3 7 -3 18 -13 25 -17 10 -19 8 -17
-23 1 -19 -2 -34 -6 -34 -11 0 11 -84 24 -92 20 -12 21 1 2 22 -10 11 -13 20
-8 20 6 0 14 -7 17 -15 5 -13 10 -14 27 -4 15 8 19 8 15 0 -4 -6 0 -14 8 -17
9 -3 13 -11 9 -17 -3 -5 2 -16 12 -24 11 -7 14 -13 7 -13 -6 0 -17 9 -25 20
-8 11 -17 17 -21 13 -4 -4 -4 1 0 12 7 20 7 20 -14 2 -11 -11 -25 -16 -31 -13
-5 4 -15 -3 -21 -14 -9 -16 -8 -20 5 -20 8 0 15 -4 15 -10 0 -5 -4 -10 -10
-10 -9 0 -11 -40 -12 -340 -1 -249 0 -260 20 -254 12 4 13 3 4 -3 -10 -8 -8
-15 8 -34 12 -13 19 -19 16 -14 -2 6 4 17 16 24 11 7 17 8 14 2 -4 -5 -2 -12
4 -16 5 -3 10 0 10 7 0 10 2 11 8 0 5 -7 16 -10 24 -7 18 7 34 -10 18 -20 -5
-3 -10 -14 -10 -24 0 -10 -7 -24 -15 -31 -12 -10 -15 -10 -15 0 0 8 -3 11 -6
7 -4 -3 5 -19 18 -35 22 -26 26 -28 37 -13 10 13 10 12 5 -9 -6 -22 -5 -23 9
-11 9 7 14 17 11 22 -3 5 2 6 11 2 11 -4 13 -8 5 -13 -6 -3 -8 -14 -4 -23 4
-11 1 -17 -7 -17 -7 0 -3 -7 9 -16 13 -9 26 -13 29 -10 3 3 13 0 22 -7 14 -10
14 -10 4 4 -7 9 -10 19 -6 22 12 12 23 7 23 -10 0 -15 2 -15 14 2 8 11 12 25
9 32 -3 7 2 13 12 13 9 0 13 5 10 10 -4 6 -3 10 2 9 22 -4 33 3 33 22 0 11 -4
17 -10 14 -5 -3 -10 -2 -10 3 0 19 51 9 75 -16 14 -14 28 -22 32 -19 3 4 1 7
-5 7 -7 0 -12 6 -12 14 0 9 8 13 23 10 22 -5 22 -4 -1 6 -24 10 -26 30 -4 38
7 2 12 -4 12 -13 0 -9 5 -13 10 -10 6 4 8 11 5 16 -4 5 -2 9 4 9 5 0 12 -6 14
-12 4 -10 6 -10 6 0 1 6 6 12 12 12 5 0 8 -4 4 -9 -3 -5 0 -13 6 -17 8 -4 9
-3 5 4 -4 7 -2 12 3 12 6 0 11 7 11 15 0 8 8 15 18 15 10 0 26 6 36 13 17 12
17 14 2 20 -9 4 -16 2 -16 -4 0 -6 -4 -8 -10 -4 -5 3 -7 12 -4 19 3 9 -1 13
-13 13 -13 -2 -17 4 -15 18 3 20 2 20 -13 1 -9 -12 -11 -24 -6 -29 10 -10 4
-37 -9 -37 -9 0 -5 58 5 84 6 14 5 17 -3 12 -7 -4 -15 -1 -18 8 -3 9 -13 16
-22 16 -8 0 -12 3 -9 7 4 3 0 17 -8 30 -9 13 -13 33 -10 43 3 11 2 28 -4 37
-9 15 -10 14 -11 -11 l0 -29 -20 24 c-33 40 -60 82 -60 94 0 17 18 -1 34 -35
11 -22 22 -40 25 -40 9 0 6 371 -3 398 -4 12 -11 22 -16 22 -5 0 -6 -7 -3 -17
4 -11 3 -14 -6 -9 -6 4 -9 16 -6 27 4 11 2 19 -4 19 -6 0 -11 7 -11 17 0 9 -3
13 -7 10 -3 -4 -13 -1 -21 6 -13 10 -15 9 -8 -8 17 -42 19 -58 8 -51 -7 4 -12
3 -12 -3 0 -6 -7 -8 -15 -5 -8 4 -15 10 -15 16 0 5 5 6 10 3 15 -9 30 4 23 21
-3 9 -12 13 -22 10 -9 -4 -3 5 12 19 25 22 26 25 8 25 -10 0 -21 -6 -24 -12
-7 -22 -17 -3 -10 21 4 16 8 19 13 10 6 -9 12 -8 25 4 15 16 15 17 0 17 -11 0
-15 5 -12 14 3 8 0 19 -6 24 -14 11 -48 12 -42 2 2 -4 -7 -18 -21 -31 -18 -17
-23 -30 -19 -47 6 -23 5 -23 -10 -8 -9 9 -18 16 -19 16 -2 0 1 -25 6 -56 5
-31 6 -59 3 -62 -3 -3 -5 0 -5 7 0 7 -5 9 -12 5 -7 -4 -8 -3 -4 5 4 6 2 36 -4
66 -13 64 -35 76 -27 15 3 -22 1 -38 -3 -35 -5 3 -11 -1 -14 -7 -3 -7 -3 -1 0
15 4 17 2 27 -6 27 -6 0 -8 5 -3 13 4 6 6 22 5 34 -2 11 2 24 7 28 7 3 8 0 5
-9 -3 -9 -1 -16 5 -16 6 0 11 6 11 13 0 19 -17 40 -26 34 -5 -3 -15 1 -22 9
-7 8 -10 15 -7 15 20 5 31 3 37 -6 4 -5 8 0 8 12 0 27 -32 27 -60 1z m210 -58
c0 -11 -4 -20 -9 -20 -17 0 -35 -61 -24 -79 9 -14 8 -18 -3 -18 -7 0 -11 4 -8
9 3 4 1 8 -4 8 -6 0 -9 11 -8 24 0 13 5 22 10 18 5 -3 7 2 3 10 -3 9 3 25 13
36 10 11 16 23 13 26 -4 3 -1 6 5 6 7 0 12 -9 12 -20z m-180 0 c0 -5 -4 -10
-10 -10 -5 0 -10 5 -10 10 0 6 5 10 10 10 6 0 10 -4 10 -10z m130 -145 c0 -8
-2 -15 -4 -15 -2 0 -6 7 -10 15 -3 8 -1 15 4 15 6 0 10 -7 10 -15z m-90 -5 c0
-5 -5 -10 -11 -10 -5 0 -7 5 -4 10 3 6 8 10 11 10 2 0 4 -4 4 -10z m113 -5
c-3 -9 -8 -14 -10 -11 -3 3 -2 9 2 15 9 16 15 13 8 -4z m-218 -25 c3 -5 1 -10
-4 -10 -6 0 -11 5 -11 10 0 6 2 10 4 10 3 0 8 -4 11 -10z m174 -40 c0 -10 -3
-8 -9 5 -12 27 -12 43 0 25 5 -8 9 -22 9 -30z m31 -69 c0 -21 -16 -2 -25 29
-7 24 -7 24 9 5 8 -11 16 -27 16 -34z m-212 -46 c-3 -3 -9 2 -12 12 -6 14 -5
15 5 6 7 -7 10 -15 7 -18z m256 -65 c-7 -6 -24 22 -23 40 0 9 6 5 14 -10 7
-14 11 -27 9 -30z m36 -48 c0 -6 6 -13 13 -15 9 -4 9 -6 0 -6 -12 -1 -43 36
-43 52 0 5 7 2 15 -7 8 -8 15 -19 15 -24z m140 -302 c0 -5 -4 -10 -10 -10 -5
0 -10 5 -10 10 0 6 5 10 10 10 6 0 10 -4 10 -10z m-25 -50 c-4 -6 -10 -8 -15
-5 -4 3 -10 1 -12 -4 -1 -5 -9 -3 -16 5 -11 12 -8 14 18 14 19 0 29 -4 25 -10z
m39 -5 c3 -8 1 -15 -4 -15 -6 0 -10 7 -10 15 0 8 2 15 4 15 2 0 6 -7 10 -15z
m63 9 c-3 -3 -12 -4 -19 -1 -8 3 -5 6 6 6 11 1 17 -2 13 -5z m-141 -71 c-11
-11 -19 6 -11 24 8 17 8 17 12 0 3 -10 2 -21 -1 -24z m-29 21 c-3 -3 -12 -4
-19 -1 -8 3 -5 6 6 6 11 1 17 -2 13 -5z m-182 -23 c-3 -6 -15 -11 -26 -11 -11
0 -19 -7 -19 -17 0 -12 -3 -14 -10 -7 -18 18 -1 41 26 36 15 -3 24 0 24 9 0 7
3 10 6 6 3 -3 3 -10 -1 -16z m45 -41 c0 -5 -5 -10 -11 -10 -5 0 -7 5 -4 10 3
6 8 10 11 10 2 0 4 -4 4 -10z m42 -7 c-6 -2 -10 -9 -7 -13 3 -5 0 -12 -7 -16
-7 -4 -10 -4 -6 1 4 4 3 14 -3 22 -9 10 -6 13 12 12 13 0 18 -3 11 -6z m-42
-23 c-19 -13 -30 -13 -30 0 0 6 10 10 23 10 18 0 19 -2 7 -10z m-5 -30 c-3 -5
-10 -10 -16 -10 -5 0 -9 5 -9 10 0 6 7 10 16 10 8 0 12 -4 9 -10z"/>
<path d="M5184 3072 c3 -5 0 -13 -6 -15 -9 -4 -10 -6 -1 -6 17 -1 25 16 12 25
-7 4 -9 3 -5 -4z"/>
<path d="M5260 3070 c0 -5 5 -10 10 -10 6 0 10 5 10 10 0 6 -4 10 -10 10 -5 0
-10 -4 -10 -10z"/>
<path d="M4714 2790 c0 -157 2 -221 3 -142 2 78 2 206 0 285 -1 78 -3 14 -3
-143z"/>
<path d="M5090 3060 c0 -5 5 -10 10 -10 6 0 10 5 10 10 0 6 -4 10 -10 10 -5 0
-10 -4 -10 -10z"/>
<path d="M8208 3035 c-3 -14 -1 -25 3 -25 5 0 9 11 9 25 0 14 -2 25 -4 25 -2
0 -6 -11 -8 -25z"/>
<path d="M4645 3038 c-11 -6 -22 -14 -25 -18 -3 -3 -13 -9 -22 -13 -11 -4 -17
-16 -17 -29 l2 -23 4 23 c5 27 23 29 23 3 0 -11 3 -28 7 -38 6 -16 5 -16 -11
-4 -16 13 -17 12 -12 -15 2 -16 5 -37 5 -46 1 -10 6 -18 12 -18 5 0 7 5 4 10
-3 6 -1 10 4 10 6 0 11 -18 11 -39 0 -22 4 -42 10 -46 5 -3 6 -15 1 -28 -6
-15 -4 -26 8 -35 9 -7 10 -11 4 -7 -16 8 -16 -7 -1 -56 18 -63 33 -48 32 34
-3 104 -3 107 -14 107 -5 0 -7 -8 -3 -17 5 -14 3 -16 -7 -6 -14 13 -6 48 10
38 6 -4 10 11 11 37 0 24 2 70 3 103 3 87 -1 95 -39 73z m5 -78 c0 -5 -5 -10
-11 -10 -5 0 -7 5 -4 10 3 6 8 10 11 10 2 0 4 -4 4 -10z m3 -55 c-3 -8 -10
-15 -15 -15 -7 0 -6 5 1 13 6 8 7 18 3 22 -4 5 -2 5 5 1 7 -4 10 -13 6 -21z
m-29 0 c-4 -8 -8 -15 -10 -15 -2 0 -4 7 -4 15 0 8 4 15 10 15 5 0 7 -7 4 -15z"/>
<path d="M5183 3029 c-12 -12 -6 -49 9 -49 5 0 7 -4 3 -9 -3 -5 -1 -12 5 -16
5 -3 10 -1 10 5 0 6 4 9 9 6 10 -6 25 24 16 32 -3 3 -5 0 -5 -7 0 -9 -5 -9
-21 0 -14 7 -19 17 -16 30 6 22 5 23 -10 8z"/>
<path d="M5210 3026 c0 -9 5 -16 10 -16 6 0 10 4 10 9 0 6 -4 13 -10 16 -5 3
-10 -1 -10 -9z"/>
<path d="M7895 3030 c-3 -6 -1 -10 6 -10 8 0 6 -6 -4 -18 -21 -23 -21 -28 1
-37 13 -5 14 -4 5 6 -10 10 -8 16 6 28 15 13 16 18 5 28 -8 8 -15 9 -19 3z"/>
<path d="M5015 3000 c3 -5 10 -10 16 -10 5 0 9 5 9 10 0 6 -7 10 -16 10 -8 0
-12 -4 -9 -10z"/>
<path d="M4545 2953 c8 -46 56 -218 92 -328 35 -108 138 -314 150 -301 3 3 -8
29 -24 58 -75 132 -144 323 -184 506 -12 56 -26 102 -32 102 -5 0 -6 -16 -2
-37z"/>
<path d="M5018 2973 c7 -3 16 -2 19 1 4 3 -2 6 -13 5 -11 0 -14 -3 -6 -6z"/>
<path d="M5213 2942 c-8 -5 -9 -13 -3 -22 11 -17 23 -8 18 14 -2 9 -8 12 -15
8z"/>
<path d="M7547 2889 c7 -7 15 -10 18 -7 3 3 -2 9 -12 12 -14 6 -15 5 -6 -5z"/>
<path d="M7235 2830 c-9 -16 -13 -30 -11 -30 3 0 12 14 21 30 9 17 13 30 11
30 -3 0 -12 -13 -21 -30z"/>
<path d="M4612 2830 c0 -14 2 -19 5 -12 2 6 2 18 0 25 -3 6 -5 1 -5 -13z"/>
<path d="M7810 2820 c0 -5 5 -10 11 -10 5 0 7 5 4 10 -3 6 -8 10 -11 10 -2 0
-4 -4 -4 -10z"/>
<path d="M5260 2810 c0 -5 5 -10 11 -10 5 0 7 5 4 10 -3 6 -8 10 -11 10 -2 0
-4 -4 -4 -10z"/>
<path d="M7774 2805 c1 -8 4 -16 7 -17 2 -2 3 -1 2 1 -2 2 2 10 8 18 9 10 8
13 -4 13 -8 0 -14 -7 -13 -15z"/>
<path d="M7555 2790 c-3 -5 -1 -10 4 -10 6 0 11 5 11 10 0 6 -2 10 -4 10 -3 0
-8 -4 -11 -10z"/>
<path d="M5490 2785 c0 -15 18 -40 24 -34 3 3 -1 14 -9 25 -8 10 -14 15 -15 9z"/>
<path d="M7725 2780 c-4 -6 -10 -8 -14 -6 -4 3 -6 -8 -5 -25 1 -16 -2 -29 -7
-29 -5 0 -9 6 -9 13 -1 13 -47 -71 -52 -94 -2 -8 -9 -20 -16 -28 -8 -8 -11
-22 -9 -33 3 -10 1 -16 -3 -13 -5 3 -14 -3 -20 -14 -6 -13 -17 -18 -28 -15
-13 5 -14 4 -3 -4 11 -8 9 -16 -13 -44 -14 -19 -27 -46 -28 -60 -1 -16 -7 -24
-14 -21 -7 2 -17 -5 -24 -16 -10 -20 -6 -25 20 -23 10 1 9 -37 -1 -43 -5 -4
-9 3 -9 14 0 12 -6 21 -13 21 -8 0 -13 -10 -12 -22 2 -21 -10 -37 -27 -38 -5
0 -8 5 -8 11 0 5 5 7 10 4 6 -3 10 -1 10 4 0 6 -5 11 -11 11 -6 0 -8 8 -5 18
4 12 0 10 -14 -7 -11 -13 -20 -34 -20 -46 0 -30 -10 -55 -21 -55 -4 0 -5 8 -2
17 6 14 3 14 -20 -3 -14 -10 -27 -22 -27 -26 0 -5 -5 -8 -11 -8 -5 0 -7 5 -3
12 4 6 3 8 -4 5 -5 -4 -9 -19 -7 -33 2 -18 -2 -24 -11 -20 -8 3 -14 2 -14 -3
0 -5 -9 -11 -21 -14 -12 -3 -18 -10 -14 -16 4 -7 0 -8 -10 -5 -13 5 -13 9 -3
23 12 14 11 14 -4 2 -10 -7 -16 -17 -13 -21 3 -5 1 -11 -5 -15 -6 -4 -8 -9 -6
-13 2 -4 -7 -8 -20 -8 -14 -1 -21 2 -17 9 3 6 1 7 -6 3 -6 -4 -9 -12 -6 -17 4
-5 -8 -17 -25 -27 -18 -9 -48 -29 -67 -44 -20 -16 -42 -28 -49 -28 -7 0 -16
-5 -20 -12 -5 -8 -2 -9 9 -5 10 3 17 2 17 -2 0 -5 -15 -9 -32 -9 -39 1 -131
-39 -123 -53 4 -5 11 -9 16 -9 6 0 7 5 3 12 -4 7 -3 8 4 4 7 -4 12 -2 12 3 0
6 4 11 10 11 17 0 -1 -29 -23 -36 -20 -6 -20 -7 6 -21 31 -16 33 -20 12 -20
-8 0 -15 4 -15 9 0 4 -10 8 -21 8 -17 0 -19 3 -10 14 10 12 8 17 -8 25 -24 13
-34 14 -26 2 3 -6 -3 -14 -12 -20 -16 -9 -15 -10 6 -11 53 0 -10 -21 -69 -22
-14 0 -19 -3 -12 -5 19 -7 15 -22 -15 -50 -17 -15 -21 -24 -11 -20 9 3 18 1
20 -5 3 -8 9 -8 24 0 10 6 13 12 7 12 -7 0 -13 5 -13 11 0 5 5 7 10 4 6 -3 10
-1 10 6 0 15 15 2 15 -14 1 -7 -9 -22 -22 -34 -19 -18 -20 -23 -7 -34 12 -10
13 -9 8 4 -5 14 -1 15 28 7 46 -14 56 -12 34 5 -11 8 -15 15 -9 15 7 0 15 -5
18 -10 5 -9 69 -40 82 -40 2 0 1 5 -2 11 -4 6 2 5 14 -3 16 -10 23 -10 33 0
14 14 32 16 23 2 -3 -5 0 -10 9 -10 8 0 17 6 19 13 4 9 8 8 16 -3 10 -13 12
-13 21 0 9 13 11 13 20 0 9 -13 11 -13 21 0 8 11 12 12 15 3 4 -8 16 -10 35
-6 17 3 29 1 29 -5 0 -19 -16 -22 -144 -24 -87 -1 -130 -5 -137 -14 -14 -17
12 -23 77 -20 42 3 51 0 50 -12 -3 -17 -46 -28 -46 -11 0 6 -5 7 -12 2 -14 -8
-22 -9 -158 -13 -47 -1 -92 -6 -101 -11 -8 -4 -22 -4 -29 1 -10 6 -23 4 -37
-6 -13 -8 -23 -10 -23 -4 0 5 -17 8 -39 6 -24 -3 -42 1 -44 7 -3 9 -8 8 -20
-1 -13 -11 -17 -10 -26 5 -6 10 -11 13 -11 7 0 -7 -7 -15 -16 -18 -9 -4 -13
-2 -8 5 4 8 -1 9 -15 4 -11 -3 -21 -3 -22 2 -1 4 -2 22 -4 38 -1 17 -3 36 -4
43 0 6 -10 12 -22 12 -12 0 -19 -5 -16 -12 2 -7 -5 -21 -16 -30 -11 -10 -17
-24 -13 -33 4 -12 0 -14 -21 -9 -17 5 -24 3 -19 -4 3 -6 2 -13 -4 -17 -6 -4
-8 -11 -5 -16 4 -5 -1 -16 -9 -25 -9 -8 -16 -12 -16 -7 0 5 6 15 13 22 10 10
6 12 -18 8 -43 -7 -65 -17 -65 -31 0 -6 -9 -18 -20 -26 -11 -8 -20 -20 -20
-26 0 -41 -151 -25 -377 41 -138 40 -311 120 -440 203 -13 8 -23 12 -23 8 0
-11 117 -80 240 -140 143 -71 275 -116 446 -152 163 -35 465 -44 634 -20 116
17 203 33 230 43 8 3 26 8 40 10 43 7 181 62 280 113 154 78 349 202 350 223
0 4 -15 -3 -33 -17 -39 -30 -52 -33 -43 -10 3 8 2 12 -4 9 -6 -3 -7 1 -4 10 4
10 14 15 26 12 13 -4 18 -1 16 11 -2 12 4 17 20 16 21 -1 21 0 5 19 -18 19
-17 20 5 8 18 -10 27 -10 38 0 17 14 19 39 3 39 -6 0 -9 -7 -5 -15 6 -17 -29
-22 -39 -5 -3 6 1 10 10 10 13 0 14 2 3 14 -9 10 -15 11 -20 2 -5 -6 -8 -7 -9
-1 -6 43 -5 62 3 73 12 14 -3 17 -18 2 -6 -6 -15 -5 -24 1 -13 9 -12 10 2 6 9
-3 22 1 29 9 10 12 13 12 24 -3 7 -10 11 -28 8 -42 -3 -21 -2 -23 12 -11 12
10 15 10 15 -4 0 -9 -5 -16 -12 -16 -28 0 6 -14 40 -16 20 -2 31 -1 25 2 -7 3
-13 10 -13 15 0 6 4 8 9 5 11 -7 33 19 24 28 -4 4 -2 11 6 15 10 6 9 11 -3 24
-12 11 -13 17 -3 20 9 4 9 8 -2 15 -9 7 -10 12 -2 16 7 5 6 15 -5 32 -9 13
-12 24 -8 24 5 0 1 7 -9 14 -12 9 -14 16 -8 21 17 10 13 35 -6 36 -12 1 -10 4
7 9 17 5 19 8 8 9 -19 1 -26 31 -7 31 5 0 7 -5 3 -12 -4 -7 -3 -8 5 -4 6 4 9
12 6 17 -4 5 -1 9 5 9 8 0 8 6 0 20 -6 11 -14 19 -18 16 -4 -2 -16 2 -27 10
-19 14 -19 15 8 10 23 -4 70 -36 52 -36 -3 0 -2 -8 4 -17 5 -10 5 -26 1 -39
-7 -18 -5 -23 14 -28 13 -3 27 -14 30 -23 6 -15 5 -16 -5 -5 -7 6 -19 12 -27
12 -11 0 -10 -3 2 -15 8 -9 13 -22 10 -29 -3 -9 6 -18 25 -24 38 -13 42 -42 5
-42 -14 0 -23 4 -19 10 3 5 13 7 23 4 15 -5 15 -5 -1 6 -22 14 -40 3 -34 -21
3 -10 1 -22 -4 -25 -6 -4 -6 -11 0 -18 6 -7 8 -16 4 -19 -12 -13 22 -6 41 8
10 8 15 19 10 26 -5 9 -2 10 9 6 10 -4 18 1 22 14 4 10 11 19 16 19 6 0 5 8
-1 20 -12 22 -6 40 13 40 7 0 6 -4 -3 -10 -12 -7 -10 -9 7 -7 17 1 20 4 12 19
-11 21 10 34 36 24 14 -5 21 11 16 37 -1 5 3 5 9 2 6 -4 11 -1 9 6 -3 27 1 40
11 34 14 -8 35 7 35 25 0 8 5 14 12 13 7 -2 18 7 24 20 10 19 10 20 -2 12 -8
-5 -6 -2 6 9 11 10 19 23 17 27 -1 5 3 9 9 9 5 0 7 5 4 10 -3 6 0 13 9 16 8 3
17 12 20 20 3 8 1 12 -4 9 -14 -9 -48 12 -55 35 -4 11 -16 21 -28 21 -17 1
-18 2 -4 6 9 2 15 8 12 13 -3 5 0 18 7 29 10 17 9 24 -7 43 -16 18 -16 20 -2
9 15 -12 17 -12 11 3 -3 9 -1 16 5 16 6 0 11 5 11 10 0 7 -6 7 -19 0 -25 -13
-31 -13 -31 1 0 5 4 8 9 5 5 -3 12 1 15 9 3 9 -1 18 -9 21 -8 4 -15 12 -15 20
0 8 -5 14 -11 14 -6 0 -9 7 -5 15 7 19 -10 20 -21 1 -5 -9 -19 -12 -40 -9 -18
3 -30 9 -27 14 3 5 0 9 -5 9 -10 0 -13 -11 -10 -37 0 -5 10 -7 22 -5 18 2 19
0 7 -8 -12 -8 -10 -10 11 -10 14 0 30 5 37 12 15 15 15 6 1 -26 -11 -23 -13
-24 -35 -10 -13 9 -28 13 -34 9 -6 -4 -9 -1 -8 7 2 7 -2 12 -7 11 -6 -1 -11
13 -12 31 0 26 3 32 23 34 13 1 26 -3 29 -8 3 -6 14 -10 23 -9 14 0 14 2 2 6
-22 9 -40 30 -32 38 4 4 -3 3 -14 -3 -12 -6 -24 -9 -27 -5 -4 3 -13 0 -21 -6
-12 -10 -14 -9 -9 8 3 12 9 18 14 15 5 -3 6 2 3 10 -7 19 -11 20 -19 6z m15
-91 c0 -6 -4 -7 -10 -4 -5 3 -10 11 -10 16 0 6 5 7 10 4 6 -3 10 -11 10 -16z
m-40 1 c0 -5 -2 -10 -4 -10 -3 0 -8 5 -11 10 -3 6 -1 10 4 10 6 0 11 -4 11
-10z m174 -77 c-3 -43 -3 -43 -11 -43 -7 0 -9 33 -4 71 3 24 17 -2 15 -28z
m-94 -4 c0 -6 -4 -7 -10 -4 -5 3 -10 11 -10 16 0 6 5 7 10 4 6 -3 10 -11 10
-16z m-10 -84 c0 8 5 15 10 15 13 0 13 -13 -1 -27 -6 -6 -8 -17 -4 -23 6 -9
10 -9 16 1 5 9 8 4 6 -16 -1 -19 2 -29 10 -28 7 2 10 -4 7 -12 -4 -9 0 -15 9
-15 9 0 19 -5 23 -12 4 -7 3 -8 -4 -4 -7 4 -12 2 -12 -3 0 -6 4 -11 8 -11 5 0
19 -9 32 -20 27 -24 15 -27 -20 -4 l-25 16 23 -20 c12 -11 28 -22 34 -24 9 -3
10 -11 3 -26 l-10 -22 -27 24 c-16 13 -28 31 -28 40 0 9 -5 16 -10 16 -6 0
-10 6 -9 13 3 26 -2 37 -17 37 -8 0 -13 4 -10 9 6 10 -21 69 -41 89 -21 22
-15 26 12 8 22 -14 25 -15 25 -1z m60 -49 c0 -2 -7 -7 -16 -10 -8 -3 -12 -2
-9 4 6 10 25 14 25 6z m-220 -67 c0 -5 -6 -9 -12 -9 -8 -1 -5 -6 5 -15 15 -11
17 -17 7 -32 -10 -15 -11 -15 -6 -1 3 10 0 15 -7 13 -7 -3 -21 7 -31 22 -11
14 -15 23 -9 20 6 -4 13 0 17 8 5 15 36 10 36 -6z m-65 -57 c-3 -3 -11 0 -18
7 -9 10 -8 11 6 5 10 -3 15 -9 12 -12z m-43 -64 c-7 -7 -12 -8 -12 -2 0 14 12
26 19 19 2 -3 -1 -11 -7 -17z m-27 2 c-3 -5 -12 -10 -18 -10 -7 0 -6 4 3 10
19 12 23 12 15 0z m264 -40 c0 -10 -3 -8 -9 5 -12 27 -12 43 0 25 5 -8 9 -22
9 -30z m-284 0 c3 -6 -1 -7 -9 -4 -18 7 -21 14 -7 14 6 0 13 -4 16 -10z m262
4 c-3 -3 -12 -4 -19 -1 -8 3 -5 6 6 6 11 1 17 -2 13 -5z m88 -12 c-3 -3 -11 0
-18 7 -9 10 -8 11 6 5 10 -3 15 -9 12 -12z m-295 -8 c0 -2 -9 -4 -21 -4 -11 0
-18 4 -14 10 5 8 35 3 35 -6z m233 -31 c19 -6 22 -19 8 -27 -5 -4 -11 0 -14 6
-3 10 -7 10 -21 -1 -9 -8 -19 -11 -23 -7 -3 3 0 6 7 6 9 0 7 5 -6 15 -10 8
-14 15 -9 14 24 -3 27 2 9 17 -16 14 -15 14 6 0 14 -9 33 -19 43 -23z m-239
11 c14 -5 14 -7 0 -22 -13 -12 -17 -13 -24 -2 -6 9 -10 8 -17 -5 -9 -16 -11
-16 -16 -1 -5 12 -3 15 5 10 8 -5 9 -2 5 9 -7 18 16 23 47 11z m-82 -36 c-8
-8 -9 -4 -5 13 4 13 8 18 11 10 2 -7 -1 -18 -6 -23z m-32 3 c0 -5 -6 -12 -12
-14 -8 -3 -5 -6 6 -6 12 -1 16 -6 12 -17 -3 -9 -3 -20 0 -26 4 -6 6 -53 5
-105 -2 -65 2 -99 11 -111 7 -9 8 -13 3 -10 -7 4 -12 -14 -13 -49 -2 -50 -1
-54 13 -43 13 11 13 15 3 21 -8 6 -9 9 -2 9 6 0 17 -6 23 -13 14 -17 0 -30
-84 -79 -122 -71 -165 -89 -165 -68 0 6 8 10 18 10 28 0 76 45 67 61 -6 11 -5
12 6 2 15 -15 33 -17 25 -4 -3 5 2 8 11 7 21 -1 32 41 30 115 -1 32 1 59 6 59
4 0 5 5 2 10 -4 6 -12 7 -18 3 -7 -4 -6 1 2 11 10 12 11 20 3 28 -7 7 -5 16 9
32 20 21 20 21 -1 38 -14 11 -17 19 -9 24 6 3 15 0 20 -7 4 -7 11 -11 14 -7 3
3 0 12 -8 19 -17 17 -18 44 -5 87 9 29 28 45 28 23z m115 -19 c-3 -3 0 -11 6
-19 16 -18 -10 -17 -34 1 -13 10 -15 15 -5 18 18 6 39 6 33 0z m180 -20 c-8
-8 -25 10 -19 20 4 6 9 5 15 -3 4 -7 6 -15 4 -17z m-195 -33 c0 -5 4 -8 9 -4
6 3 9 -4 8 -15 -2 -23 -4 -24 -20 -7 -16 17 -20 37 -7 37 6 0 10 -5 10 -11z
m-215 -40 c11 -16 1 -19 -13 -3 -7 8 -8 14 -3 14 5 0 13 -5 16 -11z m265 -4
c7 -9 8 -15 2 -15 -5 0 -12 7 -16 15 -3 8 -4 15 -2 15 2 0 9 -7 16 -15z m147
-10 c0 -17 -13 -20 -21 -6 -4 5 0 12 6 14 7 3 13 6 14 6 0 1 1 -6 1 -14z
m-482 -5 c3 -6 -1 -7 -9 -4 -18 7 -21 14 -7 14 6 0 13 -4 16 -10z m-130 -19
c-3 -5 -1 -12 4 -16 17 -10 1 -33 -20 -28 -27 7 -24 22 4 16 16 -3 18 -2 8 5
-12 9 -8 32 5 32 3 0 3 -4 -1 -9z m-134 -104 c-10 -9 -11 -8 -5 6 3 10 9 15
12 12 3 -3 0 -11 -7 -18z m70 -30 c-10 -9 -11 -8 -5 6 3 10 9 15 12 12 3 -3 0
-11 -7 -18z m254 -8 c-7 -10 -35 -1 -35 11 0 5 9 6 20 3 11 -3 17 -9 15 -14z
m-135 7 c0 -2 -7 -6 -15 -10 -8 -3 -15 -1 -15 4 0 6 7 10 15 10 8 0 15 -2 15
-4z m-171 -20 c9 -11 8 -15 -5 -20 -9 -4 -19 -4 -22 -1 -3 3 0 5 8 5 10 0 10
3 0 15 -7 8 -8 15 -2 15 5 0 15 -6 21 -14z m211 10 c0 -3 -4 -8 -10 -11 -5 -3
-10 -1 -10 4 0 6 5 11 10 11 6 0 10 -2 10 -4z m30 -15 c0 -5 -8 -15 -17 -22
-16 -12 -17 -12 -6 2 7 9 10 19 6 22 -3 4 -1 7 5 7 7 0 12 -4 12 -9z m-398 -9
c3 8 6 8 10 -3 4 -11 -2 -15 -27 -14 -26 0 -31 3 -23 13 8 9 14 9 23 2 9 -8
14 -7 17 2z m43 -2 c3 -5 1 -10 -4 -10 -6 0 -11 5 -11 10 0 6 2 10 4 10 3 0 8
-4 11 -10z m75 -30 c0 -5 -2 -10 -4 -10 -3 0 -8 5 -11 10 -3 6 -1 10 4 10 6 0
11 -4 11 -10z m-82 -20 c7 -11 10 -20 6 -20 -7 0 -34 27 -34 34 0 13 16 5 28
-14z m430 -85 c4 -4 -3 -4 -15 -1 -16 5 -23 3 -23 -5 0 -10 -3 -10 -11 -2 -6
6 -19 9 -28 6 -12 -4 -13 -3 -3 4 15 11 69 10 80 -2z m-318 -29 c0 -3 -4 -8
-10 -11 -5 -3 -10 -1 -10 4 0 6 5 11 10 11 6 0 10 -2 10 -4z m128 -37 c-17
-12 -48 -11 -48 0 0 13 21 19 43 13 15 -4 16 -7 5 -13z m97 -8 c-6 -5 -21 -12
-35 -15 l-25 -7 25 15 c28 17 50 21 35 7z m-77 -36 c-3 -3 -18 -8 -34 -10
l-29 -4 30 14 c28 12 46 12 33 0z m-595 -20 c-3 -9 -8 -14 -10 -11 -3 3 -2 9
2 15 9 16 15 13 8 -4z m447 -25 c0 -5 -5 -10 -11 -10 -5 0 -7 5 -4 10 3 6 8
10 11 10 2 0 4 -4 4 -10z m-440 -34 c0 -3 -4 -8 -10 -11 -5 -3 -10 -1 -10 4 0
6 5 11 10 11 6 0 10 -2 10 -4z m-317 -31 c-3 -9 -8 -14 -10 -11 -3 3 -2 9 2
15 9 16 15 13 8 -4z m47 11 c0 -2 -7 -7 -16 -10 -8 -3 -12 -2 -9 4 6 10 25 14
25 6z"/>
<path d="M7370 2140 c-9 -6 -10 -10 -3 -10 6 0 15 5 18 10 8 12 4 12 -15 0z"/>
<path d="M7367 1789 c4 -13 8 -18 11 -10 2 7 -1 18 -6 23 -8 8 -9 4 -5 -13z"/>
<path d="M7815 2780 c-3 -5 -2 -10 4 -10 5 0 13 5 16 10 3 6 2 10 -4 10 -5 0
-13 -4 -16 -10z"/>
<path d="M4753 2773 c-18 -7 -16 -23 2 -23 8 0 15 7 15 15 0 8 -1 15 -2 14 -2
0 -9 -3 -15 -6z"/>
<path d="M7409 2739 c-8 -5 -12 -9 -9 -10 3 0 15 -2 28 -5 12 -2 22 0 22 5 0
14 -25 20 -41 10z"/>
<path d="M4740 2730 c0 -5 5 -10 10 -10 6 0 10 5 10 10 0 6 -4 10 -10 10 -5 0
-10 -4 -10 -10z"/>
<path d="M5533 2693 c1 -17 7 -29 13 -26 6 2 17 -3 24 -12 11 -13 9 -15 -11
-15 l-24 0 25 -21 c16 -14 19 -19 8 -15 -22 7 -23 -1 -2 -21 9 -9 19 -12 22
-7 10 14 46 14 54 1 5 -7 8 -8 8 -1 0 9 -64 90 -106 133 -12 13 -13 10 -11
-16z"/>
<path d="M7315 2710 c-3 -5 -2 -10 4 -10 5 0 13 5 16 10 3 6 2 10 -4 10 -5 0
-13 -4 -16 -10z"/>
<path d="M7403 2690 c-1 -11 4 -20 13 -20 16 0 16 2 8 24 -8 22 -19 20 -21 -4z"/>
<path d="M7539 2696 c14 -16 0 -24 -37 -21 -21 2 -22 1 -4 -15 26 -24 62 -42
62 -31 0 5 -7 11 -15 15 -8 3 -15 10 -15 17 0 6 6 9 14 6 9 -4 13 0 11 11 -2
9 -4 20 -4 25 -1 4 -6 7 -12 7 -8 0 -8 -4 0 -14z"/>
<path d="M7403 2623 c-1 -18 3 -30 8 -27 5 3 9 1 9 -5 0 -5 -5 -11 -10 -13 -6
-2 -4 -11 5 -23 9 -11 14 -14 10 -8 -3 7 -1 22 5 33 7 13 7 20 0 20 -21 0 -9
20 13 21 21 0 21 1 -3 10 -20 8 -22 12 -10 19 12 7 10 9 -6 8 -16 -2 -20 -9
-21 -35z"/>
<path d="M7502 2620 c9 -14 9 -22 -1 -34 -7 -8 -10 -20 -6 -26 4 -7 -1 -9 -17
-5 -18 5 -25 2 -25 -9 0 -12 4 -13 14 -5 9 9 13 8 13 0 0 -18 46 20 46 38 1 9
3 22 5 29 2 8 -6 18 -18 23 -20 7 -22 6 -11 -11z"/>
<path d="M7476 2615 c4 -8 11 -15 16 -15 6 0 5 6 -2 15 -7 8 -14 15 -16 15 -2
0 -1 -7 2 -15z"/>
<path d="M7213 2613 c9 -2 23 -2 30 0 6 3 -1 5 -18 5 -16 0 -22 -2 -12 -5z"/>
<path d="M7303 2613 c9 -2 23 -2 30 0 6 3 -1 5 -18 5 -16 0 -22 -2 -12 -5z"/>
<path d="M7130 2581 c0 -6 4 -13 10 -16 6 -3 7 1 4 9 -7 18 -14 21 -14 7z"/>
<path d="M7540 2565 c0 -8 2 -15 4 -15 2 0 6 7 10 15 3 8 1 15 -4 15 -6 0 -10
-7 -10 -15z"/>
<path d="M5556 2545 c4 -8 8 -15 10 -15 2 0 4 7 4 15 0 8 -4 15 -10 15 -5 0
-7 -7 -4 -15z"/>
<path d="M5591 2557 c2 -1 12 -9 22 -16 14 -12 17 -11 17 3 0 10 -8 16 -22 16
-12 0 -19 -1 -17 -3z"/>
<path d="M7208 2543 c6 -2 18 -2 25 0 6 3 1 5 -13 5 -14 0 -19 -2 -12 -5z"/>
<path d="M7514 2535 c-4 -8 -15 -15 -25 -15 -10 0 -19 -4 -19 -8 0 -18 40 -6
49 15 6 13 8 23 5 23 -2 0 -7 -7 -10 -15z"/>
<path d="M7930 2515 c0 -14 5 -25 11 -25 6 0 9 7 5 15 -3 8 -1 15 5 15 6 0 7
-14 3 -35 -3 -20 -2 -35 3 -35 14 0 14 61 1 77 -16 20 -28 15 -28 -12z"/>
<path d="M7410 2520 c0 -5 5 -10 10 -10 6 0 10 -5 10 -11 0 -5 -6 -7 -12 -3
-10 6 -10 4 0 -7 14 -15 17 -43 3 -34 -5 3 -12 1 -16 -5 -3 -5 3 -10 14 -10
12 0 21 -4 21 -10 0 -5 -6 -10 -14 -10 -9 0 -12 -7 -9 -22 3 -17 2 -19 -5 -9
-7 10 -9 7 -9 -13 l0 -26 18 24 c11 13 19 28 19 34 0 5 9 19 20 32 22 26 26
40 9 40 -5 0 -8 -4 -5 -9 3 -5 -1 -12 -10 -15 -9 -4 -13 -2 -8 5 4 6 0 15 -7
20 -10 6 -11 9 -1 9 18 0 15 14 -8 28 -12 7 -20 8 -20 2z"/>
<path d="M7158 2513 c7 -3 16 -2 19 1 4 3 -2 6 -13 5 -11 0 -14 -3 -6 -6z"/>
<path d="M7261 2507 c-6 -8 -8 -17 -4 -20 12 -12 19 -7 19 13 0 24 0 24 -15 7z"/>
<path d="M8050 2505 c0 -17 -17 -50 -39 -77 -8 -10 -11 -18 -7 -18 4 0 -9 -25
-29 -55 -38 -60 -43 -74 -20 -55 8 7 15 16 15 21 0 5 16 34 36 65 20 31 37 61
39 68 2 12 15 46 22 59 2 4 -1 7 -6 7 -6 0 -11 -7 -11 -15z"/>
<path d="M5570 2496 c0 -2 7 -7 16 -10 8 -3 12 -2 9 4 -6 10 -25 14 -25 6z"/>
<path d="M5690 2496 c0 -2 8 -10 18 -17 15 -13 16 -12 3 4 -13 16 -21 21 -21
13z"/>
<path d="M7218 2493 c7 -3 16 -2 19 1 4 3 -2 6 -13 5 -11 0 -14 -3 -6 -6z"/>
<path d="M7295 2490 c3 -5 8 -10 11 -10 2 0 4 5 4 10 0 6 -5 10 -11 10 -5 0
-7 -4 -4 -10z"/>
<path d="M7328 2493 c7 -3 16 -2 19 1 4 3 -2 6 -13 5 -11 0 -14 -3 -6 -6z"/>
<path d="M7327 2466 c-11 -8 -14 -17 -8 -20 5 -4 15 3 21 14 13 23 11 24 -13
6z"/>
<path d="M5560 2459 c0 -5 9 -9 20 -9 11 0 20 2 20 4 0 2 -9 6 -20 9 -11 3
-20 1 -20 -4z"/>
<path d="M7095 2460 c3 -5 8 -10 11 -10 2 0 4 5 4 10 0 6 -5 10 -11 10 -5 0
-7 -4 -4 -10z"/>
<path d="M7160 2460 c-23 -7 -23 -8 -3 -9 12 -1 25 4 28 9 3 6 5 10 3 9 -2 -1
-14 -5 -28 -9z"/>
<path d="M7240 2460 c0 -5 10 -10 23 -10 18 0 19 2 7 10 -19 13 -30 13 -30 0z"/>
<path d="M5290 2417 c0 -31 5 -47 16 -51 8 -3 13 -2 10 3 -3 5 0 11 7 14 8 3
12 -7 11 -34 -2 -28 2 -36 12 -32 10 4 11 10 3 25 -22 41 24 48 49 7 12 -19
11 -20 -7 -14 -17 5 -21 2 -21 -14 0 -17 6 -21 34 -21 32 0 34 2 34 33 -1 17
1 39 3 47 3 12 -6 15 -43 15 -27 0 -48 3 -48 7 0 5 12 8 28 8 15 0 34 5 42 11
13 9 13 10 -2 6 -9 -3 -29 -2 -45 3 l-28 8 30 1 c45 2 13 17 -40 20 l-45 2 0
-44z m47 -13 c-3 -3 -12 -4 -19 -1 -8 3 -5 6 6 6 11 1 17 -2 13 -5z m87 -45
c-6 -11 -24 -2 -24 11 0 5 7 7 15 4 8 -4 12 -10 9 -15z m-1 -46 c-7 -2 -19 -2
-25 0 -7 3 -2 5 12 5 14 0 19 -2 13 -5z"/>
<path d="M7187 2443 c-4 -3 -7 -13 -7 -22 0 -13 2 -13 9 -2 5 8 14 10 22 5 12
-6 12 -5 0 9 -15 19 -15 19 -24 10z"/>
<path d="M5505 2429 c-11 -16 -1 -19 13 -3 7 8 8 14 3 14 -5 0 -13 -5 -16 -11z"/>
<path d="M5608 2433 c7 -3 16 -2 19 1 4 3 -2 6 -13 5 -11 0 -14 -3 -6 -6z"/>
<path d="M7240 2430 c-8 -5 -11 -13 -6 -17 5 -4 11 -3 13 4 2 7 11 9 20 6 11
-4 14 -2 9 5 -9 14 -16 15 -36 2z"/>
<path d="M7290 2422 c0 -8 6 -12 14 -9 10 4 13 1 10 -8 -4 -9 -14 -11 -32 -6
-15 3 -52 4 -82 0 -30 -3 -49 -6 -42 -7 8 -1 5 -9 -8 -22 -23 -23 -26 -42 -6
-34 8 3 12 12 9 20 -3 8 1 14 10 14 19 0 30 -27 14 -34 -7 -3 3 -4 21 -3 36 1
42 12 12 20 -20 5 -29 37 -10 37 6 0 10 -4 10 -9 0 -5 14 -9 31 -9 20 1 26 4
17 9 -9 6 -9 9 -1 9 6 0 14 -4 17 -9 3 -5 22 -11 41 -13 29 -3 35 -1 35 14 0
10 -5 18 -10 18 -7 0 -7 6 -1 18 8 14 5 17 -20 17 -18 1 -29 -4 -29 -13z"/>
<path d="M5473 2389 c9 -5 17 -18 18 -27 0 -11 2 -12 6 -4 6 15 -14 42 -31 42
-6 0 -3 -5 7 -11z"/>
<path d="M5568 2383 c6 -2 18 -2 25 0 6 3 1 5 -13 5 -14 0 -19 -2 -12 -5z"/>
<path d="M6855 2380 c-3 -5 -1 -10 4 -10 6 0 11 5 11 10 0 6 -2 10 -4 10 -3 0
-8 -4 -11 -10z"/>
<path d="M7121 2374 c0 -11 3 -14 6 -6 3 7 2 16 -1 19 -3 4 -6 -2 -5 -13z"/>
<path d="M5458 2353 c7 -3 16 -2 19 1 4 3 -2 6 -13 5 -11 0 -14 -3 -6 -6z"/>
<path d="M7242 2339 c2 -17 -3 -23 -21 -26 -29 -4 -32 -6 -35 -25 -1 -7 -5
-19 -9 -26 -9 -13 18 -13 41 1 7 5 12 3 12 -5 0 -8 -10 -15 -22 -15 -13 -1
-37 -3 -55 -5 -17 -2 -30 -1 -28 3 3 3 -7 17 -20 29 -21 20 -25 21 -25 6 0 -9
7 -19 15 -22 32 -13 12 -19 -54 -18 -38 0 -77 -4 -87 -8 -12 -5 -3 -7 24 -4
23 2 45 0 48 -5 3 -5 -8 -9 -24 -9 -16 0 -37 -9 -46 -19 -18 -19 -17 -20 32
-18 28 1 49 0 46 -2 -2 -2 1 -10 7 -17 8 -10 8 -15 -3 -19 -8 -3 -19 -5 -24
-4 -5 1 -11 0 -14 -1 -17 -6 -50 -5 -50 2 0 5 -4 7 -9 3 -5 -3 -12 -1 -16 5
-3 5 -11 10 -16 10 -5 0 -3 -11 6 -24 13 -19 23 -23 56 -20 31 2 39 -1 35 -11
-6 -16 28 -30 46 -19 60 34 106 68 102 75 -3 5 3 9 14 9 10 0 29 9 42 20 13
11 28 20 33 20 6 0 2 7 -9 16 -10 8 -13 12 -5 8 7 -3 17 0 22 7 7 11 9 11 9 1
0 -8 9 -4 24 10 13 13 21 26 19 31 -2 4 1 7 7 7 17 0 42 28 35 40 -3 5 -1 10
6 10 10 0 10 3 2 11 -14 14 -76 22 -68 9 4 -6 -3 -6 -20 0 -24 9 -26 8 -23
-11z m-12 -48 c0 -5 -7 -11 -15 -15 -15 -5 -20 5 -8 17 9 10 23 9 23 -2z m-78
-71 c4 0 12 -10 18 -22 9 -20 9 -21 -2 -7 -9 11 -28 15 -70 13 -35 -1 -58 3
-61 10 -4 10 31 12 115 6z m48 -10 c0 -5 -2 -10 -4 -10 -3 0 -8 5 -11 10 -3 6
-1 10 4 10 6 0 11 -4 11 -10z m-187 -22 c-6 -11 -43 -10 -43 1 0 5 11 8 24 7
13 0 22 -4 19 -8z m71 -17 c4 -5 -3 -7 -14 -4 -23 6 -26 13 -6 13 8 0 17 -4
20 -9z m-34 -71 c0 -5 -4 -10 -10 -10 -5 0 -10 5 -10 10 0 6 5 10 10 10 6 0
10 -4 10 -10z"/>
<path d="M7010 2340 c0 -5 5 -10 11 -10 5 0 7 5 4 10 -3 6 -8 10 -11 10 -2 0
-4 -4 -4 -10z"/>
<path d="M6890 2336 c0 -2 7 -7 16 -10 8 -3 12 -2 9 4 -6 10 -25 14 -25 6z"/>
<path d="M7083 2333 c9 -2 23 -2 30 0 6 3 -1 5 -18 5 -16 0 -22 -2 -12 -5z"/>
<path d="M5453 2315 c0 -7 6 -12 13 -12 7 0 11 4 8 8 -2 4 4 10 13 12 10 3 7
4 -8 4 -14 -1 -26 -6 -26 -12z"/>
<path d="M6982 2306 c7 -8 15 -12 17 -11 5 6 -10 25 -20 25 -5 0 -4 -6 3 -14z"/>
<path d="M7025 2312 c-15 -11 -18 -42 -4 -42 7 0 9 3 6 6 -3 4 -2 15 4 25 11
21 9 23 -6 11z"/>
<path d="M7101 2294 c14 -17 25 -18 32 -1 3 7 -5 13 -20 13 -19 2 -22 -1 -12
-12z"/>
<path d="M7143 2286 c-21 -22 -21 -24 -5 -28 22 -6 41 13 33 34 -5 15 -9 14
-28 -6z"/>
<path d="M5410 2279 c0 -5 10 -9 22 -9 12 0 18 3 14 7 -10 11 -36 12 -36 2z"/>
<path d="M6940 2286 c0 -13 37 -24 51 -15 12 9 12 10 -1 6 -8 -2 -23 0 -32 5
-10 5 -18 6 -18 4z"/>
<path d="M7056 2267 c3 -10 9 -15 12 -12 3 3 0 11 -7 18 -10 9 -11 8 -5 -6z"/>
<path d="M7920 2265 c-7 -9 -10 -18 -7 -21 3 -3 10 4 17 15 13 25 8 27 -10 6z"/>
<path d="M6930 2261 c0 -6 4 -13 10 -16 6 -3 7 1 4 9 -7 18 -14 21 -14 7z"/>
<path d="M4923 2193 c-18 -3 -20 -7 -10 -18 9 -9 14 -10 20 -1 5 8 9 7 16 -3
7 -11 11 -9 20 8 12 22 7 24 -46 14z"/>
<path d="M6880 2191 c0 -12 32 -24 39 -14 4 4 5 7 2 6 -2 -1 -12 2 -22 8 -11
6 -19 6 -19 0z"/>
<path d="M5387 2176 c-4 -9 2 -11 19 -8 29 5 32 17 5 19 -11 1 -22 -4 -24 -11z"/>
<path d="M7008 2153 c7 -3 16 -2 19 1 4 3 -2 6 -13 5 -11 0 -14 -3 -6 -6z"/>
<path d="M7815 2140 c-10 -11 -16 -22 -13 -25 3 -3 13 6 22 20 20 30 16 32 -9
5z"/>
<path d="M5330 2140 c0 -6 7 -10 15 -10 8 0 15 2 15 4 0 2 -7 6 -15 10 -8 3
-15 1 -15 -4z"/>
<path d="M5370 2140 c0 -5 5 -10 11 -10 5 0 7 5 4 10 -3 6 -8 10 -11 10 -2 0
-4 -4 -4 -10z"/>
<path d="M5202 2129 c7 -19 0 -30 -26 -45 -25 -14 -32 -34 -12 -34 21 0 20
-10 -1 -25 -13 -10 -10 -11 18 -7 19 3 28 7 22 9 -20 7 -15 23 7 23 11 0 20
-7 20 -15 0 -8 4 -15 10 -15 5 0 7 7 4 15 -4 10 0 15 12 15 14 0 16 2 6 9 -7
4 -33 7 -57 6 -24 -1 -42 2 -39 7 3 4 26 9 52 9 29 1 37 4 20 6 -16 2 -28 9
-28 14 0 6 5 7 10 4 16 -10 12 5 -7 23 -15 15 -16 15 -11 1z"/>
<path d="M5430 2136 c0 -2 11 -6 25 -8 13 -3 22 -1 19 3 -5 9 -44 13 -44 5z"/>
<path d="M6635 2129 c-15 -5 -16 -8 -4 -8 14 -1 68 -40 58 -42 -2 0 -21 -2
-41 -3 -20 -1 -40 -4 -43 -8 -4 -3 15 -5 42 -4 26 2 53 0 58 -3 16 -9 39 -7
48 4 4 6 10 5 16 -4 6 -9 19 -12 40 -8 24 5 29 3 24 -8 -6 -16 -11 -18 -63
-16 -27 1 -31 -1 -20 -8 13 -9 13 -11 -2 -11 -9 0 -18 5 -20 12 -3 7 -18 13
-35 13 -18 0 -29 -3 -27 -7 3 -4 12 -8 20 -8 8 0 12 -4 9 -10 -3 -6 4 -10 17
-11 13 0 55 -2 93 -3 39 -1 75 1 80 5 10 7 16 9 35 9 6 0 10 6 10 13 0 8 10
13 22 13 13 -1 23 4 23 9 0 6 4 16 9 23 11 18 1 26 -21 17 -10 -5 -24 -7 -30
-6 -24 4 -52 -19 -47 -37 5 -14 4 -14 -4 -2 -6 8 -8 18 -6 22 3 4 0 8 -6 8 -7
0 -9 -8 -5 -21 5 -15 4 -19 -4 -15 -6 4 -11 14 -11 22 0 12 -7 14 -31 9 -19
-4 -29 -3 -26 2 4 6 -8 9 -26 8 -43 -3 -74 10 -82 34 -7 24 -24 31 -50 20z
m329 -72 c-3 -9 -15 -15 -27 -14 -12 1 -22 -3 -22 -10 0 -20 -15 -27 -15 -7 0
25 18 44 35 38 7 -3 16 0 20 6 10 16 17 6 9 -13z"/>
<path d="M6867 2133 c-13 -12 -7 -23 11 -22 10 0 12 3 4 6 -6 2 -10 9 -6 14 6
10 0 12 -9 2z"/>
<path d="M5295 2110 c-7 -11 19 -20 34 -10 9 5 7 9 -8 13 -12 3 -23 2 -26 -3z"/>
<path d="M5361 2106 c-10 -12 -8 -13 8 -9 12 3 18 9 15 14 -7 12 -10 11 -23
-5z"/>
<path d="M6818 2113 c6 -2 18 -2 25 0 6 3 1 5 -13 5 -14 0 -19 -2 -12 -5z"/>
<path d="M6880 2079 c0 -5 5 -7 10 -4 6 3 10 8 10 11 0 2 -4 4 -10 4 -5 0 -10
-5 -10 -11z"/>
<path d="M5450 2070 c-8 -5 -10 -10 -5 -10 6 0 17 5 25 10 8 5 11 10 5 10 -5
0 -17 -5 -25 -10z"/>
<path d="M4970 2066 c0 -2 8 -10 18 -17 15 -13 16 -12 3 4 -13 16 -21 21 -21
13z"/>
<path d="M6995 2060 c-3 -5 -1 -10 4 -10 6 0 11 5 11 10 0 6 -2 10 -4 10 -3 0
-8 -4 -11 -10z"/>
<path d="M5288 2053 c7 -3 16 -2 19 1 4 3 -2 6 -13 5 -11 0 -14 -3 -6 -6z"/>
<path d="M6628 2033 c7 -3 16 -2 19 1 4 3 -2 6 -13 5 -11 0 -14 -3 -6 -6z"/>
<path d="M5110 2000 c0 -5 5 -10 11 -10 5 0 7 5 4 10 -3 6 -8 10 -11 10 -2 0
-4 -4 -4 -10z"/>
<path d="M7643 1954 l-58 -56 63 53 c34 28 62 54 62 55 0 10 -14 -1 -67 -52z"/>
<path d="M5198 1993 c7 -3 16 -2 19 1 4 3 -2 6 -13 5 -11 0 -14 -3 -6 -6z"/>
<path d="M5252 1986 c-28 -16 -42 -30 -22 -24 8 3 23 1 32 -3 10 -6 19 -5 23
1 3 5 -1 10 -10 10 -9 0 -13 5 -10 10 4 6 11 7 17 4 7 -4 8 -2 4 4 -4 7 -8 12
-9 11 -1 -1 -12 -7 -25 -13z"/>
<path d="M6777 1984 c-4 -4 -4 -10 -1 -15 6 -10 34 0 34 12 0 10 -24 12 -33 3z"/>
<path d="M6703 1972 c-7 -4 -9 -13 -5 -19 5 -8 13 -9 22 -3 10 6 11 13 5 19
-6 6 -16 7 -22 3z"/>
<path d="M5143 1963 c15 -2 37 -2 50 0 12 2 0 4 -28 4 -27 0 -38 -2 -22 -4z"/>
<path d="M6656 1955 c4 -8 12 -15 20 -15 8 0 11 6 8 15 -4 8 -12 15 -20 15 -8
0 -11 -6 -8 -15z"/>
<path d="M6570 1948 c0 -11 28 -10 35 1 3 6 -4 9 -15 8 -11 -1 -20 -5 -20 -9z"/>
<path d="M5208 1933 c7 -3 16 -2 19 1 4 3 -2 6 -13 5 -11 0 -14 -3 -6 -6z"/>
<path d="M5248 1933 c7 -3 16 -2 19 1 4 3 -2 6 -13 5 -11 0 -14 -3 -6 -6z"/>
<path d="M5298 1933 c7 -3 16 -2 19 1 4 3 -2 6 -13 5 -11 0 -14 -3 -6 -6z"/>
<path d="M6182 1928 c-7 -7 -12 -15 -12 -18 0 -3 35 -12 78 -20 42 -8 69 -16
60 -18 -25 -5 -23 -22 2 -22 11 0 20 6 20 13 0 9 11 12 34 9 33 -4 34 -3 34
31 l0 35 -63 -2 c-35 -1 -67 -4 -70 -8 -4 -4 1 -7 11 -7 68 1 106 -4 92 -12
-8 -4 -39 -7 -69 -5 -30 2 -69 4 -88 5 -29 1 -32 3 -21 16 15 18 9 20 -8 3z"/>
<path d="M6210 1930 c0 -5 9 -10 20 -10 11 0 20 5 20 10 0 6 -9 10 -20 10 -11
0 -20 -4 -20 -10z"/>
<path d="M5125 1910 c10 -11 20 -20 23 -20 3 0 -3 9 -13 20 -10 11 -20 20 -23
20 -3 0 3 -9 13 -20z"/>
<path d="M5295 1900 c-3 -5 -1 -10 4 -10 6 0 11 5 11 10 0 6 -2 10 -4 10 -3 0
-8 -4 -11 -10z"/>
<path d="M6765 1900 c-3 -5 1 -10 9 -10 9 0 16 5 16 10 0 6 -4 10 -9 10 -6 0
-13 -4 -16 -10z"/>
<path d="M6702 1878 c-17 -17 -15 -28 4 -28 8 0 12 -4 9 -10 -3 -5 -1 -10 4
-10 14 0 14 17 1 25 -5 3 -7 12 -3 20 6 18 1 19 -15 3z"/>
<path d="M7549 1873 c-13 -16 -12 -17 4 -4 9 7 17 15 17 17 0 8 -8 3 -21 -13z"/>
<path d="M6198 1873 c6 -2 18 -2 25 0 6 3 1 5 -13 5 -14 0 -19 -2 -12 -5z"/>
<path d="M6650 1865 c0 -8 4 -15 9 -15 5 0 11 7 15 15 3 9 0 15 -9 15 -8 0
-15 -7 -15 -15z"/>
<path d="M5200 1856 c0 -2 8 -10 18 -17 15 -13 16 -12 3 4 -13 16 -21 21 -21
13z"/>
<path d="M6223 1853 c9 -2 25 -2 35 0 9 3 1 5 -18 5 -19 0 -27 -2 -17 -5z"/>
<path d="M6340 1856 c0 -9 39 -13 51 -5 10 6 4 9 -18 9 -18 0 -33 -2 -33 -4z"/>
<path d="M6328 1833 c7 -3 16 -2 19 1 4 3 -2 6 -13 5 -11 0 -14 -3 -6 -6z"/>
<path d="M6678 1823 c7 -3 16 -2 19 1 4 3 -2 6 -13 5 -11 0 -14 -3 -6 -6z"/>
<path d="M5270 1806 c0 -2 8 -10 18 -17 15 -13 16 -12 3 4 -13 16 -21 21 -21
13z"/>
<path d="M6639 1797 c12 -15 11 -17 -7 -17 -11 0 -22 -6 -25 -14 -6 -14 9 -16
30 -3 6 4 14 3 18 -3 7 -11 25 -4 25 9 0 5 -12 17 -27 27 -24 15 -26 15 -14 1z"/>
<path d="M5438 1793 c12 -2 30 -2 40 0 9 3 -1 5 -23 4 -22 0 -30 -2 -17 -4z"/>
<path d="M6687 1790 c6 -7 9 -20 6 -29 -4 -14 -3 -14 6 -1 10 14 16 7 12 -13
-1 -5 3 -6 9 -2 18 11 10 32 -17 44 -21 9 -25 10 -16 1z"/>
<path d="M6575 1770 c-3 -5 -2 -10 4 -10 5 0 13 5 16 10 3 6 2 10 -4 10 -5 0
-13 -4 -16 -10z"/>
<path d="M6516 1762 c-3 -5 1 -9 9 -9 8 0 15 4 15 9 0 4 -4 8 -9 8 -6 0 -12
-4 -15 -8z"/>
<path d="M5518 1743 c6 -2 18 -2 25 0 6 3 1 5 -13 5 -14 0 -19 -2 -12 -5z"/>
<path d="M6730 1700 c0 -5 5 -10 11 -10 5 0 7 5 4 10 -3 6 -8 10 -11 10 -2 0
-4 -4 -4 -10z"/>
<path d="M6824 1698 c1 -7 11 -15 21 -16 11 -3 15 0 10 7 -3 6 -10 9 -15 6 -4
-3 -11 0 -13 5 -3 6 -4 5 -3 -2z"/>
<path d="M6594 1684 c-18 -15 -18 -15 2 -5 12 6 25 7 29 3 5 -4 5 -1 1 6 -9
15 -8 15 -32 -4z"/>
</g>
</svg>
