<?xml version="1.0" standalone="no"?>
<!DOCTYPE svg PUBLIC "-//W3C//DTD SVG 20010904//EN"
 "http://www.w3.org/TR/2001/REC-SVG-20010904/DTD/svg10.dtd">
<svg version="1.0" xmlns="http://www.w3.org/2000/svg"
 width="1264.000000pt" height="842.000000pt" viewBox="0 0 1264.000000 842.000000"
 preserveAspectRatio="xMidYMid meet">

<g transform="translate(0.000000,842.000000) scale(0.100000,-0.100000)"
fill="#000000" stroke="none">
<path d="M0 4210 l0 -4210 6320 0 6320 0 0 4210 0 4210 -6320 0 -6320 0 0
-4210z m4583 1328 c3 -1760 -5 -1594 82 -1773 89 -183 227 -305 425 -376 56
-20 84 -23 210 -24 116 0 156 4 200 19 90 30 163 74 222 131 l55 54 252 -275
c139 -151 249 -278 246 -283 -3 -5 -38 -34 -78 -64 -382 -287 -926 -365 -1400
-201 -505 175 -868 634 -936 1184 -7 56 -11 606 -11 1627 l0 1543 365 0 365 0
3 -1562z m2890 1000 c-180 -184 -719 -740 -847 -875 l-69 -72 26 -33 c14 -18
127 -148 253 -288 195 -219 231 -255 253 -253 202 18 253 20 357 12 133 -10
191 -20 312 -54 481 -138 864 -535 986 -1024 45 -179 48 -221 44 -846 l-4
-590 -28 -114 c-71 -292 -190 -507 -390 -707 -207 -206 -455 -340 -736 -398
-355 -72 -728 -24 -1027 134 -374 196 -624 540 -721 987 -15 68 -17 95 -8 101
6 5 97 52 201 104 105 52 227 117 271 145 l82 51 61 -62 c60 -60 62 -65 72
-132 28 -199 102 -350 231 -470 78 -71 153 -117 245 -149 439 -153 914 102
1004 538 17 83 19 142 19 615 0 438 -3 535 -16 600 -47 230 -191 416 -399 517
-235 113 -511 94 -697 -48 l-47 -36 -328 357 c-180 197 -463 506 -629 688
-165 181 -308 335 -317 343 -10 7 -17 19 -17 25 0 12 155 180 365 396 61 63
241 251 399 418 l288 302 496 0 495 0 -180 -182z m-2096 -1109 c32 -36 274
-301 538 -590 264 -288 576 -629 694 -759 118 -129 285 -311 371 -405 86 -93
214 -232 283 -308 l127 -139 0 -274 0 -274 -232 0 -233 1 -386 422 c-709 775
-1549 1690 -1687 1839 l-35 37 160 168 c88 92 198 210 244 260 46 51 87 92 91
90 3 -1 33 -32 65 -68z m6718 -4658 c16 -74 120 -178 198 -197 35 -8 35 -21
-2 -29 -74 -16 -178 -120 -197 -197 -8 -36 -21 -36 -29 1 -16 74 -120 178
-197 197 -36 8 -36 21 1 29 74 16 178 120 197 198 8 35 21 35 29 -2z"/>
</g>
</svg>
